# xmcd CD database file
#
# Track frame offsets:
#	150
#	14155
#	29058
#	42342
#	65915
#	77283
#	95415
#	109292
#	126022
#	147272
#
# Disc length: 2100 seconds
#
# Revision: 0
# Processed by: cddbd v1.5.2PL0 Copyright (c) Steve Scherf et al.
# Submitted via: CDex 1.51
#
DISCID=8e08320a
DTITLE=Chico Hamilton - The Chico Hamilton Trio
DYEAR=1956
DGENRE=Jazz
TTITLE0=Blues On The Rocks
TTITLE1=Street Of Drums
TTITLE2=We'll Be Together Again
TTITLE3=Skinned Strings
TTITLE4=Nuttye
TTITLE5=Porch Light
TTITLE6=Broadway
TTITLE7=Autumn Landscape
TTITLE8=Uganda
TTITLE9=Lollypop
EXTD=YEAR: 1956
EXTT0=
EXTT1=
EXTT2=
EXTT3=
EXTT4=
EXTT5=
EXTT6=
EXTT7=
EXTT8=
EXTT9=
PLAYORDER=
